<?xml version="1.0" standalone="no"?>
<!DOCTYPE svg PUBLIC "-//W3C//DTD SVG 20010904//EN"
 "http://www.w3.org/TR/2001/REC-SVG-20010904/DTD/svg10.dtd">
<svg version="1.0" xmlns="http://www.w3.org/2000/svg"
 width="626.000000pt" height="351.000000pt" viewBox="0 0 626.000000 351.000000"
 preserveAspectRatio="xMidYMid meet">

<g transform="translate(0.000000,351.000000) scale(0.100000,-0.100000)"
fill="#000000" stroke="none">
<path d="M0 2957 l0 -552 22 -10 c28 -12 27 -29 -2 -33 -19 -3 -20 -10 -20
-242 l0 -239 38 -6 c20 -3 51 -11 67 -17 45 -17 130 -21 155 -8 l22 12 -18
-26 c-13 -18 -25 -25 -39 -21 -11 3 -55 0 -98 -7 -75 -11 -78 -11 -102 12
l-25 23 0 -71 c0 -59 3 -71 18 -75 16 -4 16 -5 0 -6 -17 -1 -18 -48 -18 -846
l0 -845 1291 0 c1257 0 1291 1 1315 19 l25 19 -33 7 c-66 14 -75 42 -26 74 31
19 31 21 10 21 -34 0 -23 22 23 44 l40 20 -35 9 c-31 8 -32 10 -16 19 12 7 51
8 105 4 47 -4 239 -11 426 -16 187 -5 352 -12 367 -16 34 -8 43 -31 18 -44
-31 -16 -416 -70 -504 -70 -26 0 -36 -4 -34 -12 4 -10 77 -14 301 -19 163 -3
300 -8 303 -12 4 -4 -4 -7 -17 -7 -13 0 -31 -5 -39 -10 -13 -8 -12 -10 3 -10
10 0 15 -5 12 -10 -4 -7 452 -10 1359 -10 l1366 0 0 774 0 773 -62 2 c-34 1
-59 -1 -56 -4 3 -4 24 -6 47 -7 23 0 41 -4 41 -9 0 -5 -5 -9 -11 -9 -6 0 -9
-7 -5 -15 8 -21 -6 -19 -32 6 -12 11 -26 18 -31 15 -5 -3 -11 1 -15 9 -7 19
-76 21 -76 3 0 -10 -2 -10 -8 -1 -4 7 -19 12 -32 12 -14 1 -36 1 -49 1 -14 0
-29 6 -33 12 -6 10 -11 9 -19 -5 -10 -17 -12 -17 -28 2 -10 12 -26 21 -35 21
-12 0 -66 84 -66 104 0 2 69 3 153 2 147 -1 287 16 287 36 0 4 7 8 15 8 11 0
15 12 15 52 0 28 -3 48 -7 45 -3 -4 -16 -1 -28 7 -18 12 -24 12 -40 0 -10 -8
-24 -14 -29 -14 -6 0 -5 4 3 9 20 13 6 41 -21 42 -19 0 -18 2 9 12 51 19 50
28 -3 21 -90 -11 -124 -22 -124 -38 0 -12 -39 34 -40 47 0 4 5 7 11 7 5 0 37
14 71 30 63 31 83 37 73 20 -11 -18 42 -11 84 12 l41 22 0 87 c0 95 -11 113
-53 84 -12 -8 -31 -15 -42 -15 -18 0 -17 2 5 13 14 7 24 21 23 31 -1 18 8 18
50 1 16 -7 17 28 17 649 l0 656 -3130 0 -3130 0 0 -553z m3204 254 c3 -4 40
-11 82 -15 86 -8 136 -30 295 -127 l96 -59 82 0 c53 0 81 -4 81 -11 0 -8 -16
-10 -47 -6 -26 3 -62 3 -80 0 -25 -4 -29 -8 -20 -18 7 -7 22 -15 32 -19 22 -7
58 -63 50 -76 -3 -5 4 -11 15 -15 11 -3 20 -10 20 -15 0 -4 8 -10 18 -13 35
-9 32 -87 -3 -87 -19 0 -68 -24 -96 -48 -25 -21 -62 -89 -54 -101 2 -5 -33
-21 -80 -35 -71 -22 -92 -34 -137 -77 -29 -28 -45 -46 -35 -39 14 10 17 10 17
-1 1 -9 8 -6 19 9 20 23 38 31 25 11 -3 -6 5 -3 20 6 15 10 31 25 37 34 8 12
8 10 3 -9 l-6 -25 25 23 c17 16 26 20 29 11 3 -8 9 -9 19 -3 18 11 70 14 63 3
-3 -5 3 -6 12 -2 14 5 16 3 11 -12 -6 -14 -4 -15 5 -7 9 7 17 6 26 -4 7 -8 9
-14 5 -15 -4 0 2 -4 15 -10 13 -5 20 -13 17 -19 -3 -5 2 -10 13 -10 13 0 18
-7 17 -22 -1 -17 -19 -28 -93 -58 -104 -42 -171 -90 -218 -156 -18 -25 -41
-53 -51 -61 -17 -13 -17 -14 0 -9 9 3 17 1 17 -3 0 -5 15 -5 34 -1 47 10 66
-3 27 -20 -17 -6 -36 -18 -42 -26 -6 -8 -30 -14 -53 -14 -58 0 -135 -25 -171
-54 -21 -18 -25 -25 -14 -26 9 0 22 7 29 15 7 9 19 14 27 11 8 -3 16 0 18 7 3
6 16 13 30 13 15 1 22 -2 18 -9 -4 -6 4 -7 23 -3 28 7 28 7 9 -8 -11 -8 -25
-16 -31 -16 -10 0 -63 -50 -52 -50 5 0 59 24 98 44 28 14 75 1 99 -28 11 -13
7 -16 -26 -21 -55 -10 -134 -52 -162 -86 -26 -33 -21 -51 7 -26 10 10 22 14
25 10 4 -3 7 -2 7 4 0 6 11 14 25 17 14 4 25 11 25 17 0 6 4 7 10 4 5 -3 18
-1 29 5 24 12 37 -3 16 -20 -8 -7 -15 -18 -15 -24 0 -6 -16 -21 -35 -33 -31
-21 -93 -108 -83 -118 2 -3 19 9 36 26 32 31 42 26 21 -12 -14 -26 -24 -139
-12 -139 14 0 36 30 67 92 37 74 52 79 67 25 11 -37 13 -39 18 -18 6 21 8 22
19 8 14 -17 16 -35 6 -87 -6 -32 -5 -33 8 -16 14 18 15 17 26 -10 6 -16 16
-46 22 -66 15 -49 30 -58 30 -18 0 26 3 31 22 28 18 -2 24 4 32 32 5 19 14 38
19 41 5 4 6 12 3 18 -4 6 -2 11 4 11 6 0 8 6 4 13 -5 8 -4 9 4 2 6 -5 20 -57
32 -115 12 -58 34 -142 49 -187 l29 -83 -53 0 c-34 0 -59 5 -68 15 -43 42
-149 115 -169 115 -13 0 -41 7 -63 15 -85 30 -155 11 -175 -50 -6 -19 -17 -35
-25 -35 -7 0 -23 -9 -36 -21 -13 -11 -18 -18 -12 -14 9 4 11 1 7 -9 -3 -9 -10
-13 -15 -10 -5 3 -6 -2 -3 -10 4 -10 15 -14 35 -11 16 3 43 7 59 10 17 3 29 1
26 -4 -3 -5 4 -11 17 -15 23 -5 194 -26 206 -24 3 0 19 0 35 -1 41 -1 25 -13
-26 -18 -24 -3 -45 -8 -48 -12 -3 -3 -9 -6 -15 -6 -17 -1 -65 -28 -65 -37 0
-4 31 -8 68 -8 38 0 111 -3 163 -7 77 -6 87 -9 54 -14 -27 -4 -9 -7 58 -8 94
-1 98 -2 81 -19 -17 -16 -17 -17 9 -20 33 -4 35 -18 5 -28 -34 -12 87 -33 190
-34 90 0 222 -18 222 -30 0 -4 -21 -11 -47 -15 -27 -3 -59 -9 -73 -12 -24 -5
-24 -5 -5 10 20 15 20 15 -5 21 -86 21 -406 33 -395 16 3 -6 23 -10 43 -11 32
0 34 -1 15 -9 -27 -11 -30 -25 -7 -34 21 -8 8 -26 -20 -26 -22 0 -46 -17 -46
-32 0 -4 7 -8 16 -8 8 0 12 5 9 10 -3 6 -2 10 3 10 17 0 21 -28 5 -34 -9 -4
-13 -9 -10 -12 7 -8 67 18 67 28 0 5 -6 8 -14 8 -8 0 -17 4 -20 9 -5 7 72 9
142 2 l27 -3 -30 -10 c-16 -5 -46 -10 -65 -10 -29 0 -30 -1 -7 -5 46 -7 30
-23 -24 -23 -43 0 -50 -3 -45 -16 4 -11 2 -15 -6 -11 -7 2 -19 -2 -26 -9 -10
-11 -10 -14 0 -14 9 -1 8 -3 -2 -9 -8 -5 -56 -11 -106 -14 -103 -7 -133 -15
-112 -28 7 -5 23 -9 35 -9 12 0 28 -7 37 -15 16 -16 46 -20 46 -7 0 5 26 8 58
7 42 -1 57 -5 57 -15 0 -17 -56 -30 -101 -23 -18 3 -54 0 -81 -6 -27 -7 -101
-14 -164 -16 -63 -3 -157 -8 -209 -12 l-95 -8 83 -8 c85 -9 113 -27 40 -27
-57 0 -44 -8 22 -13 30 -2 56 -10 58 -16 3 -8 -4 -10 -24 -5 -20 5 -25 4 -19
-5 5 -8 20 -11 44 -7 l36 5 -40 -19 c-26 -12 -81 -22 -154 -29 -126 -10 -155
-20 -65 -22 l59 -2 -60 -7 c-37 -5 -87 -4 -130 3 -39 6 -191 12 -340 13 -149
0 -283 4 -299 8 -17 4 -93 8 -170 8 -78 0 -146 5 -153 10 -7 5 -21 7 -32 3
-15 -4 -19 -2 -16 7 4 10 41 12 168 10 97 -1 157 1 149 6 -19 13 8 22 66 22
34 0 43 3 32 10 -11 7 -7 10 20 11 l35 2 -40 6 -40 7 56 8 c37 5 77 4 115 -4
33 -7 66 -12 74 -11 8 1 76 2 150 3 104 1 115 2 48 5 -49 2 -88 8 -88 13 0 10
81 28 150 33 25 2 -18 4 -95 5 -77 1 -198 5 -270 7 -262 11 -450 12 -420 4 26
-7 24 -8 -10 -4 -22 3 -65 5 -95 6 l-55 2 58 7 c58 8 86 19 51 21 -53 3 54 17
151 19 147 3 93 17 -80 20 -74 1 -117 5 -100 9 l30 7 -30 8 c-28 7 -29 8 -10
19 18 11 17 12 -15 18 -19 4 25 7 98 8 156 1 184 20 35 23 l-98 2 85 3 c142 5
124 18 -35 23 l-150 6 190 4 c155 3 176 5 115 10 -41 4 -109 9 -150 10 -42 2
-62 5 -45 8 l30 5 -25 7 c-14 5 39 8 122 9 140 1 147 2 145 21 -1 19 -8 20
-100 20 -59 0 -96 4 -92 9 3 6 -12 12 -32 14 -21 2 21 5 92 6 139 3 219 18
110 21 l-60 2 55 13 55 13 -95 3 c-59 1 -76 4 -45 6 67 5 88 13 55 23 l-25 8
25 1 c20 1 22 3 10 11 -12 7 -12 10 -1 10 7 0 11 6 8 14 -8 19 14 26 78 26 30
0 57 5 60 10 4 6 11 8 16 5 13 -9 11 9 -3 24 -7 7 -8 11 -3 9 23 -7 17 18 -6
29 -17 8 -30 27 -38 53 -7 23 -19 44 -27 47 -8 3 -14 17 -14 30 0 38 -88 124
-126 123 -27 -1 -68 5 -120 15 -16 4 -25 17 -33 50 -9 36 -22 53 -63 85 -28
23 -63 44 -78 46 l-27 6 14 51 c7 28 9 55 4 61 -7 10 -12 46 -5 46 1 0 9 -6
16 -14 8 -7 32 -16 54 -19 21 -2 47 -8 57 -12 11 -5 17 -3 17 6 -1 35 -45 63
-74 47 -14 -8 -21 -7 -28 6 -5 9 -19 16 -31 16 -16 0 -28 12 -45 47 -12 25
-20 48 -17 51 3 3 5 1 5 -4 0 -16 54 -13 73 3 9 9 17 12 17 6 0 -5 16 -18 35
-29 22 -11 36 -28 40 -45 8 -36 34 -56 70 -55 33 1 33 2 21 60 -10 47 -54 90
-74 74 -15 -13 -12 -16 -55 49 -39 58 -34 67 29 53 22 -5 49 -7 62 -3 13 3 22
1 22 -6 0 -6 5 -11 11 -11 6 0 8 9 4 21 -5 14 -2 25 6 30 10 6 8 9 -8 9 -15 0
-24 9 -32 32 -11 31 -11 31 10 12 15 -13 20 -14 17 -4 -2 9 6 16 20 18 12 2
22 7 22 12 0 5 8 11 18 13 12 3 11 5 -6 6 -13 0 -20 6 -17 11 3 6 0 10 -7 11
-7 0 2 5 20 10 17 5 32 14 32 19 0 6 15 10 33 11 27 1 24 3 -28 20 -50 16 -54
18 -20 14 63 -8 124 -9 132 -2 3 4 -14 8 -38 8 -61 2 -105 12 -99 24 3 6 11 9
18 9 28 -4 9 15 -25 24 -25 6 -30 10 -16 11 12 1 25 6 28 11 3 6 16 10 28 11
20 1 20 2 -3 9 -14 4 -20 8 -14 9 6 1 24 11 38 22 20 16 24 24 15 30 -7 4 40
5 104 2 92 -5 117 -3 117 7 0 10 -14 11 -57 7 -31 -3 -80 -1 -107 5 -57 11
-84 28 -46 28 23 0 23 0 4 15 -19 14 -18 14 4 15 24 0 30 15 10 23 -8 3 -6 6
5 6 10 1 17 7 15 14 -3 16 24 87 33 87 7 0 20 30 25 58 4 20 34 51 56 58 11 3
17 12 14 20 -4 10 3 14 22 15 26 0 26 1 5 9 -38 16 -26 19 50 14 83 -5 79 2
-8 14 -46 7 -55 11 -40 17 11 5 24 15 28 22 5 7 22 19 39 26 29 12 26 13 -38
9 -38 -2 -80 1 -94 7 -23 9 -21 10 20 11 48 1 42 7 -30 29 l-35 10 40 -4 c131
-14 223 -16 229 -6 5 7 -4 14 -23 17 -21 5 -31 12 -31 25 0 24 19 24 36 2 13
-17 15 -17 32 3 12 14 24 19 33 14 8 -4 24 -11 37 -14 18 -6 22 -3 22 13 0 11
5 23 10 26 22 14 9 27 -20 22 -47 -10 -35 6 38 48 84 50 118 63 162 64 23 1
41 8 50 20 7 11 16 18 20 16 3 -2 21 0 40 5 47 11 208 12 214 1z m-589 -161
c3 -5 2 -10 -4 -10 -5 0 -13 5 -16 10 -3 6 -2 10 4 10 5 0 13 -4 16 -10z m40
-19 c3 -5 1 -12 -5 -16 -5 -3 -10 1 -10 9 0 18 6 21 15 7z m-662 -98 c-7 -2
-19 -2 -25 0 -7 3 -2 5 12 5 14 0 19 -2 13 -5z m2177 -77 c0 -2 -8 -10 -17
-17 -16 -13 -17 -12 -4 4 13 16 21 21 21 13z m-100 -106 c-23 -32 -40 -46 -40
-33 0 9 48 63 56 63 3 0 -4 -13 -16 -30z m-3454 -42 c8 -16 12 -33 9 -38 -3
-5 5 -11 17 -13 20 -4 19 -4 -5 -6 -15 0 -41 -8 -58 -16 -28 -15 -30 -15 -39
10 -14 36 -13 37 10 30 23 -7 25 -2 10 26 -9 15 -7 19 6 19 15 0 15 2 -2 21
-19 21 -19 21 9 8 16 -7 35 -26 43 -41z m3307 45 c-7 -2 -19 -2 -25 0 -7 3 -2
5 12 5 14 0 19 -2 13 -5z m2242 -23 c-12 -13 -26 -18 -39 -14 -12 3 -16 2 -10
-3 13 -9 14 -73 1 -73 -4 0 -12 11 -18 24 -13 27 4 71 25 63 6 -3 20 1 31 9
27 20 31 17 10 -6z m-203 -32 c-5 -7 -12 -22 -15 -33 -5 -20 -5 -20 -6 1 0 11
4 25 11 32 16 16 23 15 10 0z m-5537 -28 c3 -5 1 -10 -4 -10 -6 0 -11 5 -11
10 0 6 2 10 4 10 3 0 8 -4 11 -10z m537 -45 c0 -5 -5 -11 -10 -13 -5 -1 -9 4
-9 13 0 9 4 14 9 13 5 -2 10 -8 10 -13z m5082 -39 c-1 -49 2 -57 28 -76 15
-11 28 -27 28 -36 0 -8 12 -19 26 -25 15 -5 24 -12 21 -15 -2 -3 -21 1 -40 10
-19 8 -38 12 -41 9 -11 -11 -76 31 -76 49 0 9 9 26 20 36 13 12 20 30 18 48
-2 24 7 54 15 54 1 0 2 -24 1 -54z m-2224 36 c-1 -25 -20 -33 -76 -30 l-59 3
33 15 c37 16 102 24 102 12z m2002 -94 c-5 -43 -17 -50 -24 -14 -3 14 1 31 10
40 20 20 20 19 14 -26z m-5190 -5 c-6 -3 -10 -9 -6 -14 6 -11 2 -11 -21 -3
-14 6 -13 8 7 19 13 6 25 10 28 7 3 -3 -1 -7 -8 -9z m-12 -33 c13 -8 13 -10
-2 -10 -9 0 -20 5 -23 10 -8 13 5 13 25 0z m1077 4 c-3 -3 -12 -4 -19 -1 -8 3
-5 6 6 6 11 1 17 -2 13 -5z m4263 -24 c0 -5 -2 -10 -4 -10 -3 0 -8 5 -11 10
-3 6 -1 10 4 10 6 0 11 -4 11 -10z m-380 -9 c0 -5 3 -18 7 -28 6 -16 5 -16
-10 -4 -19 15 -23 41 -7 41 6 0 10 -4 10 -9z m501 -48 c13 -16 12 -17 -3 -4
-10 7 -18 15 -18 17 0 8 8 3 21 -13z m-381 -108 c-7 -8 -18 -15 -24 -15 -6 0
-2 7 8 15 25 19 32 19 16 0z m-4853 -21 c-3 -3 -12 -4 -19 -1 -8 3 -5 6 6 6
11 1 17 -2 13 -5z m4513 -51 c0 -16 -37 -4 -44 14 -4 9 -1 22 6 30 10 12 14
11 24 -9 8 -13 13 -28 14 -35z m335 37 c-18 -19 -17 -20 6 -21 l24 0 -25 -11
c-48 -20 -75 -33 -80 -38 -16 -17 -62 -40 -80 -40 -28 0 -25 14 5 28 32 15 32
25 -2 39 -26 11 -24 11 22 11 39 -1 59 5 89 25 46 32 66 35 41 7z m-2010 -10
c5 7 15 0 30 -22 17 -25 21 -39 14 -61 -5 -16 -7 -32 -6 -36 1 -3 -8 -17 -20
-30 l-22 -24 -26 31 c-29 35 -83 56 -126 50 -16 -3 -29 -3 -29 -2 0 14 15 34
25 34 6 0 17 10 23 23 10 20 11 20 11 3 1 -19 1 -19 14 -1 8 10 19 15 24 12 6
-4 16 0 23 8 7 8 16 13 20 10 5 -3 12 0 16 6 5 8 9 8 14 -1 6 -9 9 -9 15 0z
m1695 -98 c0 -10 -48 -35 -70 -36 -22 -1 -26 -36 -4 -36 13 0 15 -3 7 -11 -16
-16 -54 11 -51 35 3 16 47 37 116 55 1 1 2 -3 2 -7z m747 -19 c-4 -3 -2 -12 4
-20 6 -7 7 -13 2 -13 -5 0 -16 9 -26 20 -16 19 -16 20 5 20 12 0 18 -3 15 -7z
m-974 -120 c-3 -21 -6 -39 -7 -40 -3 -5 -86 10 -86 16 0 3 5 13 10 21 9 13 12
13 21 -3 10 -17 13 -16 30 12 25 42 39 39 32 -6z m-326 11 c-3 -3 -12 -4 -19
-1 -8 3 -5 6 6 6 11 1 17 -2 13 -5z m421 -6 c-3 -7 -13 -15 -24 -17 -16 -3
-17 -1 -5 13 16 19 34 21 29 4z m-198 -69 c0 -27 -17 -23 -22 5 -4 17 -1 23 9
19 7 -3 13 -14 13 -24z m-4372 6 c12 -3 22 -11 22 -16 0 -5 -10 -9 -22 -9 -19
0 -20 -2 -8 -10 12 -7 8 -10 -15 -10 -23 0 -27 -3 -15 -10 13 -8 12 -10 -2
-10 -10 0 -18 4 -18 9 0 5 -3 16 -6 24 -4 12 0 14 18 11 20 -5 21 -4 6 6 -10
6 -18 16 -18 21 0 6 8 8 18 5 9 -2 27 -7 40 -11z m4172 11 c0 -9 -30 -14 -35
-6 -4 6 3 10 14 10 12 0 21 -2 21 -4z m-3950 -15 c0 -5 -7 -12 -16 -15 -22 -9
-24 -8 -24 9 0 8 9 15 20 15 11 0 20 -4 20 -9z m4245 -1 c3 -5 -3 -10 -14 -10
-11 0 -23 5 -26 10 -3 6 3 10 14 10 11 0 23 -4 26 -10z m-382 -51 c-7 -26 -18
-24 -42 10 l-21 29 34 -10 c26 -8 32 -15 29 -29z m1166 12 c12 -16 21 -32 21
-36 0 -3 -16 -13 -35 -21 -32 -13 -36 -13 -54 5 -18 18 -21 18 -55 3 -21 -10
-36 -23 -36 -34 0 -9 -8 -21 -17 -27 -16 -9 -16 -12 -3 -25 8 -8 37 -19 64
-23 26 -4 47 -12 46 -18 -1 -5 7 -12 17 -16 12 -4 4 -8 -24 -10 -36 -4 -43 -2
-43 13 0 29 -20 31 -30 2 -8 -20 -14 -24 -22 -16 -8 8 -7 16 3 28 12 16 12 17
-2 12 -13 -5 -25 8 -49 53 -31 58 -31 61 -13 75 11 9 32 13 55 10 20 -2 38 0
40 4 6 14 73 50 95 50 13 0 30 -12 42 -29z m-449 4 c0 -8 -4 -15 -10 -15 -5 0
-7 7 -4 15 4 8 8 15 10 15 2 0 4 -7 4 -15z m-4626 -3 c11 -18 -23 -43 -55 -40
-40 4 -52 28 -15 28 14 0 26 -4 26 -10 0 -5 5 -10 11 -10 6 0 9 9 6 20 -5 19
16 29 27 12z m4006 4 c0 -3 -4 -8 -10 -11 -5 -3 -10 -1 -10 4 0 6 5 11 10 11
6 0 10 -2 10 -4z m380 -21 c0 -8 -4 -15 -9 -15 -13 0 -22 16 -14 24 11 11 23
6 23 -9z m-3210 -28 c0 -5 -4 -5 -10 -2 -5 3 -10 14 -10 23 0 15 2 15 10 2 5
-8 10 -19 10 -23z m2950 -39 c7 -24 5 -28 -21 -37 -16 -6 -37 -8 -47 -5 -15 5
-15 4 1 -6 9 -6 32 -10 49 -8 29 3 33 0 43 -37 27 -91 27 -93 3 -98 -20 -4
-19 -4 5 -6 18 -1 27 -6 27 -18 0 -10 7 -37 16 -60 14 -35 14 -46 4 -58 -7 -8
-17 -15 -23 -15 -17 0 -77 -50 -77 -64 0 -7 -9 -21 -19 -30 -11 -10 -23 -31
-26 -47 -8 -37 -60 -89 -89 -89 -23 0 -48 27 -111 118 -47 67 -123 184 -140
215 l-16 28 73 -1 c40 -1 87 2 103 8 l30 9 -27 8 c-33 9 -38 28 -5 20 12 -2
38 -1 57 4 19 5 29 9 23 10 -7 1 -13 5 -13 10 0 5 6 12 13 14 13 5 -34 -2 -68
-10 -17 -3 -23 5 -37 48 -17 52 -16 77 3 49 8 -13 10 -13 18 -1 7 11 10 8 16
-10 14 -43 31 -51 115 -53 44 -1 85 1 90 4 17 10 -65 33 -91 25 -18 -5 -21 -4
-9 4 8 6 11 11 5 12 -5 0 -1 4 10 9 21 9 13 11 -62 14 -32 1 -38 14 -18 36 22
24 45 26 45 4 0 -9 5 -13 13 -10 6 3 19 9 28 12 9 3 22 17 28 30 6 14 19 24
31 24 11 0 20 6 21 13 0 13 16 -21 29 -65z m-1040 56 c0 -8 -19 -13 -24 -6 -3
5 1 9 9 9 8 0 15 -2 15 -3z m-3502 -59 c27 -12 32 -51 5 -40 -10 4 -28 10 -40
12 -16 4 -23 13 -23 30 0 16 4 22 12 17 7 -4 8 -3 4 4 -4 7 -4 18 0 24 6 9 10
5 14 -12 3 -14 16 -29 28 -35z m4632 17 c0 -15 -2 -15 -10 -2 -13 20 -13 33 0
25 6 -3 10 -14 10 -23z m154 -13 c-3 -5 2 -9 11 -9 9 0 15 6 13 14 -2 8 2 14
7 13 6 -1 9 -6 7 -11 -1 -4 11 -6 28 -4 16 3 30 1 30 -4 0 -4 10 -7 23 -7 17
1 18 2 4 6 -9 2 -15 9 -12 14 8 12 62 12 70 0 3 -6 17 -6 35 -1 23 7 32 5 39
-7 6 -11 10 -12 15 -4 13 21 25 11 60 -55 33 -62 33 -66 13 -60 -66 18 -92 17
-114 -3 -12 -12 -35 -21 -50 -21 -16 0 -53 -9 -83 -19 l-55 -19 173 1 173 2
20 -44 c18 -42 18 -46 2 -70 -10 -15 -18 -21 -21 -13 -6 18 -22 15 -22 -4 0
-14 -3 -14 -15 -4 -8 7 -15 8 -15 2 0 -11 -55 -26 -84 -24 -10 1 -25 -3 -32
-9 -16 -13 -55 11 -74 46 -7 14 -18 25 -24 25 -7 0 -19 9 -29 20 -12 14 -29
20 -57 20 -33 0 -42 -4 -52 -25 -9 -19 -16 -24 -32 -19 -12 4 -22 8 -24 9 -5
5 -82 235 -82 247 0 7 5 7 14 -1 11 -9 15 -9 18 1 4 10 8 10 22 -1 9 -8 20
-10 24 -6 4 4 1 10 -5 12 -13 5 -18 35 -8 45 9 8 95 -24 89 -33z m-4404 26 c0
-23 -26 -52 -46 -52 -13 0 -21 3 -18 8 3 5 14 9 25 9 10 0 19 5 19 10 0 6 -4
10 -10 10 -5 0 -10 5 -10 10 0 6 9 10 20 10 11 0 20 -2 20 -5z m3237 -17 c-3
-8 -6 -5 -6 6 -1 11 2 17 5 13 3 -3 4 -12 1 -19z m-2296 -2 c10 6 12 -17 3
-40 -8 -21 -34 -2 -34 24 0 20 13 35 18 21 2 -6 8 -9 13 -5z m4053 -8 c-4 -34
-4 -34 -13 -19 -10 15 -4 41 8 41 4 0 7 -10 5 -22z m-1554 8 c0 -3 -4 -8 -10
-11 -5 -3 -10 -1 -10 4 0 6 5 11 10 11 6 0 10 -2 10 -4z m-3281 -23 c-1 -5 0
-10 1 -13 11 -28 4 -53 -17 -61 -23 -9 -32 -29 -12 -29 5 0 7 -4 4 -10 -3 -5
3 -10 14 -10 12 0 21 -5 21 -11 0 -5 6 -7 13 -3 7 5 7 1 -2 -10 -13 -15 -13
-19 0 -26 12 -8 11 -22 -9 -97 -13 -48 -31 -104 -41 -123 -16 -31 -24 -36 -77
-47 -40 -8 -63 -8 -71 -2 -6 6 -23 9 -36 7 -18 -2 -36 9 -67 41 -42 43 -42 43
-103 39 l-62 -3 -3 58 -3 59 73 -7 c64 -6 76 -4 97 13 l24 19 -70 17 c-39 10
-84 16 -99 14 -27 -3 -28 0 -32 39 l-3 42 48 6 c26 3 55 7 63 8 29 4 15 22
-20 25 -49 4 -90 22 -90 39 0 10 6 13 16 9 9 -3 37 -6 62 -7 40 -1 43 -2 22
-10 -23 -8 -22 -8 5 -4 17 3 43 7 58 10 19 3 34 -2 49 -17 16 -16 22 -18 29
-7 7 11 9 10 9 -3 0 -9 -8 -22 -17 -27 -15 -9 -14 -10 10 -11 23 0 27 -4 27
-31 0 -17 4 -28 10 -24 6 4 10 -7 10 -24 0 -17 5 -31 10 -31 6 0 10 9 10 21 0
12 8 23 20 26 11 3 20 9 20 14 0 8 20 35 48 64 6 8 12 18 12 24 0 5 10 17 22
25 12 9 19 16 15 16 -5 0 -5 5 -2 10 7 12 16 13 14 3z m3104 -5 c4 -10 8 -9
16 2 8 11 11 11 11 2 0 -7 6 -12 13 -10 13 3 117 -101 117 -117 0 -8 56 -142
70 -167 16 -28 12 -35 -20 -42 -20 -3 -37 -16 -47 -35 -19 -32 -62 -54 -138
-71 -27 -6 -55 -16 -61 -21 -15 -12 -18 -8 -38 60 -20 67 -20 72 -2 65 8 -3
16 -18 20 -35 7 -39 24 -37 30 4 18 116 18 113 -19 161 -19 26 -35 48 -35 51
0 10 49 5 55 -6 4 -5 12 -8 18 -6 7 2 20 -2 30 -11 27 -24 20 2 -8 28 -14 13
-25 31 -25 40 0 8 -7 25 -15 37 -13 19 -13 21 5 26 20 5 29 37 10 37 -5 0 -10
5 -10 10 0 14 17 12 23 -2z m2142 -8 c3 -5 1 -10 -4 -10 -6 0 -11 5 -11 10 0
6 2 10 4 10 3 0 8 -4 11 -10z m-51 -15 c11 -8 16 -18 11 -22 -4 -5 -10 -2 -12
5 -4 10 -8 10 -20 1 -12 -10 -16 -10 -23 1 -10 17 -20 10 -24 -17 -4 -25 -111
-41 -156 -23 -42 17 -38 30 10 30 30 0 40 4 40 16 0 13 7 15 39 9 24 -4 42 -2
46 4 9 16 67 13 89 -4z m-4821 -36 c-7 -7 -12 -3 -15 16 -5 25 -4 25 10 11 12
-11 13 -19 5 -27z m120 32 c5 -1 5 -6 1 -13 -5 -8 -2 -9 11 -4 16 6 16 4 4
-11 -33 -45 -54 -63 -70 -63 -24 0 -28 9 -17 48 5 18 15 32 24 32 8 0 13 4 10
9 -4 5 2 8 11 6 10 -2 22 -4 26 -4z m297 -6 c8 0 16 -8 18 -19 3 -13 0 -16
-10 -10 -7 5 -21 7 -30 6 -13 -2 -18 3 -18 18 0 14 4 19 13 13 6 -4 19 -8 27
-8z m2434 -11 c3 -8 2 -12 -4 -9 -6 3 -10 10 -10 16 0 14 7 11 14 -7z m621 -9
c-21 -17 -37 -15 -43 3 -2 8 8 12 30 12 31 -1 32 -1 13 -15z m-3609 -17 c4 -6
3 -8 -4 -4 -6 3 -13 2 -16 -3 -4 -5 4 -11 16 -13 13 -2 23 -7 23 -13 1 -5 4
-20 9 -32 8 -24 -19 -83 -38 -83 -5 0 -17 -7 -25 -14 -12 -11 -26 -13 -54 -6
-21 4 -47 6 -58 3 -21 -6 -21 -6 -3 28 17 31 19 32 22 12 2 -13 6 -23 10 -23
14 0 32 40 25 56 -4 11 -3 15 5 10 6 -3 13 2 17 13 5 17 54 81 62 81 1 0 5 -5
9 -12z m3394 -19 c0 -11 4 -18 8 -15 5 3 15 -10 24 -29 14 -30 14 -35 0 -40
-22 -8 -102 5 -102 17 0 6 15 8 38 4 l37 -5 -30 13 c-16 8 -35 12 -41 9 -23
-9 -24 16 -2 31 21 15 23 15 30 -1 5 -14 7 -12 7 8 1 43 31 51 31 8z m1490 -9
c-20 -13 -43 -13 -35 0 3 6 16 10 28 10 18 0 19 -2 7 -10z m-5620 -35 c0 -28
0 -28 -53 -16 -29 7 -41 6 -52 -6 -13 -13 -15 -11 -15 16 l0 31 60 0 c57 0 60
-1 60 -25z m3938 13 c7 -7 8 -17 1 -30 -7 -14 -6 -18 5 -18 18 0 23 -18 31
-124 3 -43 9 -92 12 -109 11 -56 -19 -24 -74 79 -36 68 -52 111 -53 137 0 23
4 36 10 32 6 -3 10 1 10 9 0 8 8 20 18 25 22 13 26 13 40 -1z m-4110 -15 c-2
-9 -9 -18 -17 -21 -8 -3 -11 0 -7 7 5 7 -3 11 -23 11 -16 0 -33 5 -36 10 -4 6
12 10 40 10 38 0 46 -3 43 -17z m-55 -23 c11 0 -23 -29 -35 -30 -4 0 -6 9 -5
20 1 13 6 19 15 15 7 -3 19 -5 25 -5z m3663 -56 c-3 -8 0 -14 7 -14 7 0 22
-37 34 -87 12 -49 25 -99 29 -113 5 -21 3 -20 -18 10 -14 19 -39 61 -57 92
-31 56 -32 59 -17 89 9 17 13 36 9 42 -4 6 -1 7 6 3 7 -5 10 -14 7 -22z m-141
6 c-3 -5 -2 -18 3 -27 11 -21 5 -46 -9 -37 -10 6 -12 57 -2 67 10 10 15 8 8
-3z m-3309 -18 c13 -8 27 -115 14 -107 -4 3 -11 24 -15 48 -4 23 -12 48 -17
55 -11 13 0 16 18 4z m4044 -45 c0 -20 -25 1 -28 24 -2 23 -2 23 13 5 8 -11
15 -24 15 -29z m-720 -32 c0 -9 7 -18 15 -21 8 -4 15 -16 15 -28 1 -11 7 -32
15 -46 l14 -25 1 26 c0 15 7 30 16 33 8 3 12 2 9 -4 -3 -6 -1 -10 4 -10 6 0
22 -21 36 -47 14 -27 35 -63 47 -82 l22 -34 -37 6 c-27 4 -42 1 -61 -14 l-25
-20 -14 28 c-38 75 -84 253 -66 253 5 0 9 -7 9 -15z m786 -89 c30 -54 54 -101
54 -103 0 -2 -15 -1 -34 2 -20 4 -36 2 -40 -4 -4 -6 -11 -11 -16 -11 -13 0
-38 88 -46 161 -6 55 -5 61 11 58 10 -3 40 -45 71 -103z m-779 -342 c-3 -3
-12 -4 -19 -1 -8 3 -5 6 6 6 11 1 17 -2 13 -5z m-3009 -141 c-10 -2 -28 -2
-40 0 -13 2 -5 4 17 4 22 1 32 -1 23 -4z m3256 -2 c3 -5 -1 -11 -9 -15 -21 -8
-19 -26 3 -27 44 -3 -40 -17 -103 -18 -66 -1 -71 1 -82 25 -11 23 -10 24 9 18
17 -5 20 -3 15 10 -6 14 4 16 78 16 46 0 86 -4 89 -9z m-3306 -18 c-26 -2 -71
-2 -100 0 -29 2 -8 3 47 3 55 0 79 -1 53 -3z m3545 -10 c-7 -2 -19 -2 -25 0
-7 3 -2 5 12 5 14 0 19 -2 13 -5z m-3495 -20 c-15 -2 -42 -2 -60 0 -18 2 -6 4
27 4 33 0 48 -2 33 -4z m3622 -4 c123 -8 167 -14 173 -25 6 -11 38 -14 145
-14 l137 -1 -35 -18 c-43 -22 -118 -35 -134 -23 -23 19 -182 43 -242 37 -44
-4 -55 -2 -44 6 12 9 11 10 -5 4 -11 -4 -75 -9 -141 -12 -102 -4 -122 -2 -127
11 -4 10 2 17 16 22 21 7 21 7 2 15 -30 11 63 11 255 -2z m-3588 -26 c-40 -2
-103 -2 -140 0 -37 2 -4 3 73 3 77 0 107 -2 67 -3z m161 0 c-13 -2 -33 -2 -45
0 -13 2 -3 4 22 4 25 0 35 -2 23 -4z m-83 -56 c0 -13 -105 -12 -210 3 -45 6
-30 8 78 9 101 1 132 -2 132 -12z m3321 6 l64 -8 -90 -5 c-49 -3 -99 -3 -109
-1 -20 4 -20 4 0 12 25 10 58 11 135 2z m402 0 c-7 -2 -19 -2 -25 0 -7 3 -2 5
12 5 14 0 19 -2 13 -5z m-3503 -13 c11 -7 -1 -10 -40 -10 -30 0 -62 5 -70 10
-11 7 1 10 40 10 30 0 62 -5 70 -10z m-487 -17 c-7 -2 -19 -2 -25 0 -7 3 -2 5
12 5 14 0 19 -2 13 -5z m264 -7 c4 -3 -14 -7 -38 -8 l-44 -1 50 -7 c48 -7 48
-7 -25 -9 -41 -1 -131 -4 -200 -6 l-125 -4 60 16 c33 8 83 18 110 22 57 9 203
7 212 -3z m3538 3 c-22 -4 -58 -7 -80 -7 -39 1 -38 1 10 8 28 4 64 7 80 7 25
1 23 -1 -10 -8z m145 0 c-24 -5 -14 -6 32 -3 74 6 112 -1 102 -18 -5 -7 -2 -9
8 -5 9 3 62 2 119 -3 57 -5 140 -11 184 -14 44 -3 107 -8 140 -11 33 -2 112
-7 175 -10 63 -3 129 -9 145 -15 24 -8 17 -9 -35 -5 -36 3 -182 10 -325 15
-262 10 -395 20 -560 40 -95 11 -120 20 -64 21 28 0 30 2 14 9 -14 6 -2 8 40
8 53 -1 56 -2 25 -9z m-710 -19 c0 -5 -4 -10 -10 -10 -5 0 -10 5 -10 10 0 6 5
10 10 10 6 0 10 -4 10 -10z m-50 -10 c0 -5 -5 -10 -11 -10 -5 0 -7 5 -4 10 3
6 8 10 11 10 2 0 4 -4 4 -10z m387 -17 c0 -12 -11 -13 -51 -8 -81 11 -90 25
-15 24 50 -1 66 -5 66 -16z m-3268 -27 c58 -8 64 -16 15 -17 -34 -1 -36 -2
-14 -9 19 -6 8 -8 -40 -10 -84 -2 -127 -18 -55 -20 28 -1 70 -2 95 -2 l45 0
-45 -8 c-53 -11 -222 -1 -214 11 6 10 -29 12 -39 2 -4 -3 -19 -8 -34 -9 -16
-2 -43 -6 -60 -9 -25 -4 -33 -2 -33 8 0 11 30 17 120 27 66 6 120 14 120 17 0
2 -43 3 -95 2 -52 -2 -98 0 -101 4 -4 4 -19 8 -33 8 -17 1 -12 4 14 8 50 7
295 6 354 -3z m174 7 c-13 -2 -35 -2 -50 0 -16 2 -5 4 22 4 28 0 40 -2 28 -4z
m3127 -32 c13 -1 13 -2 0 -11 -11 -7 -6 -8 18 -4 21 4 32 3 32 -5 0 -13 27
-15 32 -2 2 5 25 7 52 4 80 -9 28 -25 -80 -24 -52 1 -93 -2 -90 -7 2 -4 -26
-5 -62 -3 -66 5 -67 5 -22 11 l45 7 -45 1 c-40 2 -45 5 -45 25 0 22 2 22 75
15 41 -3 82 -7 90 -7z m1343 2 c-7 -2 -21 -2 -30 0 -10 3 -4 5 12 5 17 0 24
-2 18 -5z m-1745 -21 c2 -7 -3 -12 -12 -12 -9 0 -16 7 -16 16 0 17 22 14 28
-4z m82 3 c0 -10 -10 -15 -29 -15 -16 0 -31 6 -35 15 -4 12 3 15 29 15 24 0
35 -5 35 -15z m1815 -16 c5 -5 23 -9 40 -10 25 0 27 -2 10 -9 -11 -4 -36 -13
-55 -18 -30 -9 -24 -10 35 -6 39 2 77 5 85 6 50 4 54 -7 5 -13 -54 -6 -51 -7
31 -5 64 1 90 -2 87 -10 -2 -6 6 -14 17 -17 14 -4 19 -10 14 -18 -5 -9 -1 -10
16 -6 17 4 20 3 11 -6 -9 -9 -16 -9 -31 1 -25 15 -43 16 -34 0 4 -7 3 -8 -4
-4 -6 4 -40 4 -76 0 -74 -8 -94 -28 -43 -44 31 -9 31 -9 -8 -5 -22 2 -70 7
-108 11 -37 3 -70 10 -72 14 -7 12 27 21 71 19 44 -2 121 13 148 28 21 11 -1
16 -139 29 -38 3 -83 12 -99 20 -16 7 -33 11 -39 7 -5 -3 -7 0 -5 8 3 8 16 13
31 11 22 -2 24 1 20 19 -6 21 -4 22 38 15 24 -4 48 -11 54 -17z m-1112 4 c-13
-2 -33 -2 -45 0 -13 2 -3 4 22 4 25 0 35 -2 23 -4z m545 -10 c-15 -2 -42 -2
-60 0 -18 2 -6 4 27 4 33 0 48 -2 33 -4z m-781 -19 c-3 -3 -12 -4 -19 -1 -8 3
-5 6 6 6 11 1 17 -2 13 -5z m576 -11 c-7 -2 -19 -2 -25 0 -7 3 -2 5 12 5 14 0
19 -2 13 -5z m-2888 -12 c3 -5 0 -11 -7 -14 -7 -2 -6 -3 2 -2 8 0 14 7 13 13
-2 8 14 12 48 12 47 0 192 -20 187 -26 -2 -1 -57 -8 -123 -14 -106 -11 -126
-10 -169 4 -27 9 -57 14 -67 11 -11 -4 -19 -4 -19 -1 0 18 124 33 135 17z
m3935 -1 c0 -5 -4 -10 -10 -10 -5 0 -10 5 -10 10 0 6 5 10 10 10 6 0 10 -4 10
-10z m-1327 -17 c-7 -2 -19 -2 -25 0 -7 3 -2 5 12 5 14 0 19 -2 13 -5z m-2668
-23 c-4 -6 6 -10 22 -10 20 0 24 -3 14 -9 -15 -10 -43 -4 -81 16 -25 13 -25
13 13 13 23 0 36 -4 32 -10z m2243 5 c-9 -10 -98 -14 -103 -5 -2 4 21 8 52 9
31 1 54 -1 51 -4z m609 -1 c-3 -3 -12 -4 -19 -1 -8 3 -5 6 6 6 11 1 17 -2 13
-5z m101 -1 c-15 -2 -42 -2 -60 0 -18 2 -6 4 27 4 33 0 48 -2 33 -4z m47 -13
c4 -6 -12 -9 -42 -9 l-48 2 40 7 c22 4 41 8 42 9 1 0 5 -3 8 -9z m102 4 c-3
-3 -12 -4 -19 -1 -8 3 -5 6 6 6 11 1 17 -2 13 -5z m63 2 c0 -2 -7 -7 -16 -10
-8 -3 -12 -2 -9 4 6 10 25 14 25 6z m-4373 -12 c-3 -3 -12 -4 -19 -1 -8 3 -5
6 6 6 11 1 17 -2 13 -5z m-54 -11 c-7 -2 -19 -2 -25 0 -7 3 -2 5 12 5 14 0 19
-2 13 -5z m1207 -3 c11 -7 5 -9 -22 -7 -20 1 -34 5 -31 10 6 10 35 9 53 -3z
m298 -7 c-10 -2 -28 -2 -40 0 -13 2 -5 4 17 4 22 1 32 -1 23 -4z m3772 -7 c0
-11 -19 -15 -25 -6 -3 5 1 10 9 10 9 0 16 -2 16 -4z m-723 -22 c-3 -3 -12 -4
-19 -1 -8 3 -5 6 6 6 11 1 17 -2 13 -5z m653 -5 c0 -4 12 -10 28 -12 17 -2 9
-5 -20 -6 -44 -1 -73 12 -46 21 20 7 38 5 38 -3z m235 -29 c18 -5 -9 -6 -65
-3 -52 3 -97 7 -99 9 -8 7 134 2 164 -6z m-2950 -10 c3 -5 -1 -10 -9 -10 -8 0
-18 5 -21 10 -3 6 1 10 9 10 8 0 18 -4 21 -10z m-531 -9 c3 -5 -1 -12 -10 -15
-24 -9 -46 -7 -39 3 3 5 -3 12 -12 14 -10 3 -1 5 19 6 20 0 39 -3 42 -8z m99
2 c-7 -2 -21 -2 -30 0 -10 3 -4 5 12 5 17 0 24 -2 18 -5z m150 -20 c-13 -2
-33 -2 -45 0 -13 2 -3 4 22 4 25 0 35 -2 23 -4z m2512 -3 c-11 -5 -33 -8 -50
-8 -29 1 -29 1 5 8 49 10 69 10 45 0z m-2315 -21 c69 -5 178 -13 243 -18 127
-9 167 -21 70 -21 -40 0 -65 -5 -72 -14 -10 -12 -6 -16 21 -22 29 -6 30 -8 13
-15 -17 -7 -16 -8 8 -8 16 -1 27 -7 27 -15 0 -18 27 -27 110 -37 41 -5 3 -6
-101 -3 -162 4 -249 18 -256 41 -2 6 14 14 39 19 l43 7 -30 9 c-16 4 -175 8
-353 7 -178 0 -326 2 -330 6 -4 3 0 10 8 15 12 8 9 10 -10 10 -34 0 -57 15
-40 25 38 24 391 32 610 14z m-913 -255 c-3 -3 -12 -4 -19 -1 -8 3 -5 6 6 6
11 1 17 -2 13 -5z m2861 -45 c13 0 13 -2 -3 -8 -21 -9 -38 6 -28 23 4 6 8 5
11 -2 2 -7 11 -12 20 -13z m52 17 c0 -3 -4 -8 -10 -11 -5 -3 -10 -1 -10 4 0 6
5 11 10 11 6 0 10 -2 10 -4z m207 -2 c-3 -3 -12 -4 -19 -1 -8 3 -5 6 6 6 11 1
17 -2 13 -5z m50 0 c-3 -3 -12 -4 -19 -1 -8 3 -5 6 6 6 11 1 17 -2 13 -5z
m-2229 -41 c-10 -2 -28 -2 -40 0 -13 2 -5 4 17 4 22 1 32 -1 23 -4z"/>
<path d="M2728 3039 c2 -16 8 -29 13 -29 14 0 10 47 -4 53 -10 4 -12 -3 -9
-24z"/>
<path d="M2770 3059 c0 -5 5 -7 10 -4 6 3 10 8 10 11 0 2 -4 4 -10 4 -5 0 -10
-5 -10 -11z"/>
<path d="M3008 2613 c7 -3 16 -2 19 1 4 3 -2 6 -13 5 -11 0 -14 -3 -6 -6z"/>
<path d="M2950 2576 c0 -9 7 -16 16 -16 9 0 14 5 12 12 -6 18 -28 21 -28 4z"/>
<path d="M2180 2339 c-22 -6 -20 -7 13 -8 38 -1 47 3 25 11 -7 3 -24 1 -38 -3z"/>
<path d="M3051 2336 c-9 -10 -8 -15 4 -20 10 -4 15 1 15 14 0 24 -4 25 -19 6z"/>
<path d="M3108 2283 c7 -3 16 -2 19 1 4 3 -2 6 -13 5 -11 0 -14 -3 -6 -6z"/>
<path d="M2313 2253 c9 -2 23 -2 30 0 6 3 -1 5 -18 5 -16 0 -22 -2 -12 -5z"/>
<path d="M2183 2078 c38 -6 68 -6 85 1 21 7 9 9 -58 9 l-85 0 58 -10z"/>
<path d="M2303 1955 c-51 -12 -59 -20 -44 -39 15 -17 107 -31 148 -22 26 6 30
11 29 38 -1 31 -3 32 -46 32 -25 1 -64 -4 -87 -9z"/>
<path d="M1875 1890 c27 -12 35 -12 35 0 0 6 -12 10 -27 9 -25 0 -26 -1 -8 -9z"/>
<path d="M2283 1809 c-18 -5 -33 -14 -33 -19 0 -14 13 -12 29 3 11 10 13 10 7
0 -5 -9 0 -13 14 -13 12 0 18 5 15 10 -3 6 1 10 9 10 9 0 16 5 16 10 0 12 -13
12 -57 -1z"/>
<path d="M2170 1799 c0 -5 5 -7 10 -4 6 3 10 8 10 11 0 2 -4 4 -10 4 -5 0 -10
-5 -10 -11z"/>
<path d="M2429 1560 c-8 -4 -54 -11 -104 -16 l-90 -8 105 -7 c150 -9 340 -9
310 1 l-25 8 25 2 c14 2 -11 7 -55 12 -134 14 -152 15 -166 8z"/>
<path d="M3435 1000 c28 -12 125 -12 125 0 0 6 -30 10 -72 9 -50 0 -67 -3 -53
-9z"/>
<path d="M3788 993 c6 -2 18 -2 25 0 6 3 1 5 -13 5 -14 0 -19 -2 -12 -5z"/>
<path d="M3367 962 l-22 -13 25 5 c14 3 58 6 98 6 49 0 71 3 67 11 -10 14
-140 8 -168 -9z"/>
<path d="M3608 763 c7 -3 16 -2 19 1 4 3 -2 6 -13 5 -11 0 -14 -3 -6 -6z"/>
<path d="M3063 613 c15 -2 37 -2 50 0 12 2 0 4 -28 4 -27 0 -38 -2 -22 -4z"/>
<path d="M3023 563 c9 -2 25 -2 35 0 9 3 1 5 -18 5 -19 0 -27 -2 -17 -5z"/>
<path d="M2335 521 c-6 -11 9 -23 19 -14 9 9 7 23 -3 23 -6 0 -12 -4 -16 -9z"/>
<path d="M4914 1430 c0 -11 3 -20 7 -20 10 0 19 27 12 34 -12 11 -19 6 -19
-14z"/>
<path d="M5155 1847 c23 -19 45 -22 45 -7 0 6 -6 10 -14 10 -8 0 -23 3 -33 6
-16 6 -16 5 2 -9z"/>
<path d="M5130 1779 c0 -5 5 -7 10 -4 6 3 10 8 10 11 0 2 -4 4 -10 4 -5 0 -10
-5 -10 -11z"/>
<path d="M5228 1693 c18 -2 45 -2 60 0 15 2 0 4 -33 4 -33 0 -45 -2 -27 -4z"/>
<path d="M683 1743 c9 -2 25 -2 35 0 9 3 1 5 -18 5 -19 0 -27 -2 -17 -5z"/>
<path d="M905 1650 c3 -5 10 -10 16 -10 5 0 9 5 9 10 0 6 -7 10 -16 10 -8 0
-12 -4 -9 -10z"/>
<path d="M780 1580 c0 -5 5 -10 10 -10 6 0 10 5 10 10 0 6 -4 10 -10 10 -5 0
-10 -4 -10 -10z"/>
<path d="M857 1559 c7 -7 15 -10 18 -7 3 3 -2 9 -12 12 -14 6 -15 5 -6 -5z"/>
<path d="M546 1538 c3 -4 38 -7 77 -7 81 1 73 6 -20 12 -34 2 -60 0 -57 -5z"/>
<path d="M908 1543 c7 -3 16 -2 19 1 4 3 -2 6 -13 5 -11 0 -14 -3 -6 -6z"/>
<path d="M4143 1703 c9 -2 23 -2 30 0 6 3 -1 5 -18 5 -16 0 -22 -2 -12 -5z"/>
<path d="M4208 873 c12 -2 30 -2 40 0 9 3 -1 5 -23 4 -22 0 -30 -2 -17 -4z"/>
<path d="M4313 863 c9 -2 25 -2 35 0 9 3 1 5 -18 5 -19 0 -27 -2 -17 -5z"/>
<path d="M668 763 c12 -2 30 -2 40 0 9 3 -1 5 -23 4 -22 0 -30 -2 -17 -4z"/>
<path d="M5698 633 c6 -2 18 -2 25 0 6 3 1 5 -13 5 -14 0 -19 -2 -12 -5z"/>
<path d="M5658 613 c6 -2 18 -2 25 0 6 3 1 5 -13 5 -14 0 -19 -2 -12 -5z"/>
<path d="M8 2373 c7 -3 16 -2 19 1 4 3 -2 6 -13 5 -11 0 -14 -3 -6 -6z"/>
<path d="M6220 1865 c32 -18 40 -18 40 0 0 10 -10 15 -32 15 l-33 -1 25 -14z"/>
</g>
</svg>
